solid OpenSCAD_Model
  facet normal 0 0 -1
    outer loop
      vertex -6.3 -6.3 0
      vertex 6.3 6.3 0
      vertex 6.3 -6.3 0
    endloop
  endfacet
  facet normal -0 0 -1
    outer loop
      vertex 6.3 6.3 0
      vertex -6.3 -6.3 0
      vertex -6.3 6.3 0
    endloop
  endfacet
  facet normal 1 -0 0
    outer loop
      vertex 6.3 -6.3 11.6
      vertex 6.3 6.3 0
      vertex 6.3 6.3 11.6
    endloop
  endfacet
  facet normal 1 0 0
    outer loop
      vertex 6.3 6.3 0
      vertex 6.3 -6.3 11.6
      vertex 6.3 -6.3 0
    endloop
  endfacet
  facet normal -1 0 0
    outer loop
      vertex -6.3 -6.3 0
      vertex -6.3 6.3 11.6
      vertex -6.3 6.3 0
    endloop
  endfacet
  facet normal -1 -0 0
    outer loop
      vertex -6.3 6.3 11.6
      vertex -6.3 -6.3 0
      vertex -6.3 -6.3 11.6
    endloop
  endfacet
  facet normal 0 -1 0
    outer loop
      vertex -6.3 -6.3 0
      vertex 6.3 -6.3 11.6
      vertex -6.3 -6.3 11.6
    endloop
  endfacet
  facet normal 0 -1 -0
    outer loop
      vertex 6.3 -6.3 11.6
      vertex -6.3 -6.3 0
      vertex 6.3 -6.3 0
    endloop
  endfacet
  facet normal 0 1 -0
    outer loop
      vertex 6.3 6.3 0
      vertex -6.3 6.3 11.6
      vertex 6.3 6.3 11.6
    endloop
  endfacet
  facet normal 0 1 0
    outer loop
      vertex -6.3 6.3 11.6
      vertex 6.3 6.3 0
      vertex -6.3 6.3 0
    endloop
  endfacet
  facet normal 0 0 1
    outer loop
      vertex 6.3 6.3 11.6
      vertex 5.3 5.3 11.6
      vertex 6.3 -6.3 11.6
    endloop
  endfacet
  facet normal 0 0 1
    outer loop
      vertex 6.3 6.3 11.6
      vertex -5.3 5.3 11.6
      vertex 5.3 5.3 11.6
    endloop
  endfacet
  facet normal 0 0 1
    outer loop
      vertex -5.3 5.3 11.6
      vertex -6.3 6.3 11.6
      vertex -5.3 -5.3 11.6
    endloop
  endfacet
  facet normal -0 0 1
    outer loop
      vertex -6.3 6.3 11.6
      vertex -5.3 5.3 11.6
      vertex 6.3 6.3 11.6
    endloop
  endfacet
  facet normal -0 0 1
    outer loop
      vertex 5.3 -5.3 11.6
      vertex 6.3 -6.3 11.6
      vertex 5.3 5.3 11.6
    endloop
  endfacet
  facet normal -0 0 1
    outer loop
      vertex -5.3 -5.3 11.6
      vertex 6.3 -6.3 11.6
      vertex 5.3 -5.3 11.6
    endloop
  endfacet
  facet normal 0 0 1
    outer loop
      vertex -5.3 -5.3 11.6
      vertex -6.3 -6.3 11.6
      vertex 6.3 -6.3 11.6
    endloop
  endfacet
  facet normal 0 0 1
    outer loop
      vertex -6.3 -6.3 11.6
      vertex -5.3 -5.3 11.6
      vertex -6.3 6.3 11.6
    endloop
  endfacet
  facet normal -0 0 1
    outer loop
      vertex -5.3 5.3 1
      vertex 5.3 -5.3 1
      vertex 5.3 5.3 1
    endloop
  endfacet
  facet normal 0 0 1
    outer loop
      vertex 5.3 -5.3 1
      vertex -5.3 5.3 1
      vertex -5.3 -5.3 1
    endloop
  endfacet
  facet normal -1 0 0
    outer loop
      vertex 5.3 -5.3 1
      vertex 5.3 5.3 11.6
      vertex 5.3 5.3 1
    endloop
  endfacet
  facet normal -1 -0 0
    outer loop
      vertex 5.3 5.3 11.6
      vertex 5.3 -5.3 1
      vertex 5.3 -5.3 11.6
    endloop
  endfacet
  facet normal 1 -0 0
    outer loop
      vertex -5.3 -5.3 11.6
      vertex -5.3 5.3 1
      vertex -5.3 5.3 11.6
    endloop
  endfacet
  facet normal 1 0 0
    outer loop
      vertex -5.3 5.3 1
      vertex -5.3 -5.3 11.6
      vertex -5.3 -5.3 1
    endloop
  endfacet
  facet normal 0 1 -0
    outer loop
      vertex 5.3 -5.3 1
      vertex -5.3 -5.3 11.6
      vertex 5.3 -5.3 11.6
    endloop
  endfacet
  facet normal 0 1 0
    outer loop
      vertex -5.3 -5.3 11.6
      vertex 5.3 -5.3 1
      vertex -5.3 -5.3 1
    endloop
  endfacet
  facet normal 0 -1 0
    outer loop
      vertex -5.3 5.3 1
      vertex 5.3 5.3 11.6
      vertex -5.3 5.3 11.6
    endloop
  endfacet
  facet normal 0 -1 -0
    outer loop
      vertex 5.3 5.3 11.6
      vertex -5.3 5.3 1
      vertex 5.3 5.3 1
    endloop
  endfacet
endsolid OpenSCAD_Model
